Coordinates
version=1
nRows=17
nColumns=40
inDegrees=yes

Units are S.I. units (second, meters, Newtons, ...)
Angles are in degrees.

endheader
time	pelvis_tilt	pelvis_list	pelvis_rotation	pelvis_tx	pelvis_ty	pelvis_tz	hip_flexion_r	hip_adduction_r	hip_rotation_r	knee_angle_r	knee_angle_r_beta	ankle_angle_r	subtalar_angle_r	mtp_angle_r	hip_flexion_l	hip_adduction_l	hip_rotation_l	knee_angle_l	knee_angle_l_beta	ankle_angle_l	subtalar_angle_l	mtp_angle_l	lumbar_extension	lumbar_bending	lumbar_rotation	arm_flex_r	arm_add_r	arm_rot_r	elbow_flex_r	pro_sup_r	wrist_flex_r	wrist_dev_r	arm_flex_l	arm_add_l	arm_rot_l	elbow_flex_l	pro_sup_l	wrist_flex_l	wrist_dev_l
      2.54000000	     -1.18597347	     -5.74412428	      3.31042752	      1.09337559	      0.93089319	      0.49191279	     10.27991502	      3.96762778	    -13.49136728	     17.79014563	     17.79014563	     10.58180707	     -3.42720415	     -4.23807485	     29.01373139	    -14.84464265	      0.79341205	     66.27903799	     66.27903799	      4.78555443	    -18.41645008	     11.28676263	    -10.45073027	      6.19198917	      0.96177002	     11.97877231	    -21.35465703	     -1.09528657	     81.00260218	     45.56922400	      0.00000000	      0.00000000	      3.98821036	    -10.53521673	     -3.28270932	     29.57714077	     45.56061779	      0.00000000	      0.00000000
      2.55378571	     -1.37873898	     -5.59589761	      3.86159870	      1.09156361	      0.93153116	      0.49265290	      9.80866577	      3.96021604	    -13.75562077	     17.04367228	     17.04367228	     10.54643099	     -3.49217628	     -4.18482962	     30.37020000	    -14.63713912	      0.57894319	     64.12627520	     64.12627520	      5.51433860	    -18.72928001	     11.60956613	    -10.48852745	      5.94236922	      0.77744881	     13.68711851	    -21.22582602	     -1.23435333	     82.93755324	     45.51398233	      0.00000000	      0.00000000	      3.04490379	    -10.27843048	     -3.10958385	     28.95501947	     45.53007127	      0.00000000	      0.00000000
      2.56757143	     -1.56603997	     -5.41320401	      4.40463385	      1.08979556	      0.93215054	      0.49328821	      9.29685936	      3.92085237	    -14.01418616	     16.24951607	     16.24951607	     10.53192173	     -3.54331365	     -4.17872329	     31.51205030	    -14.33260308	      0.28095136	     61.65023286	     61.65023286	      6.23528569	    -18.86193253	     12.04472658	    -10.53873411	      5.69947599	      0.74383680	     15.31623231	    -21.24293177	     -1.35795575	     84.98434617	     45.45552101	      0.00000000	      0.00000000	      2.08608901	    -10.05648105	     -2.94894585	     28.55743905	     45.49929613	      0.00000000	      0.00000000
      2.58135714	     -1.75570737	     -5.22831750	      4.93506783	      1.08803482	      0.93272239	      0.49380155	      8.81321596	      3.86533156	    -14.31410992	     15.49437563	     15.49437563	     10.48439921	     -3.58502843	     -4.20917714	     32.44846226	    -13.88755703	      0.04285586	     58.84886169	     58.84886169	      6.91933838	    -18.92771492	     12.52561979	    -10.58409554	      5.42784983	      0.72494105	     16.92492214	    -21.29225399	     -1.51223616	     87.01296645	     45.39961744	      0.00000000	      0.00000000	      1.16411654	     -9.81510487	     -2.77489256	     28.26448116	     45.46561835	      0.00000000	      0.00000000
      2.59514286	     -1.97432889	     -5.03033854	      5.46496653	      1.08626252	      0.93316820	      0.49410215	      8.38060870	      3.77125343	    -14.63223742	     14.77918137	     14.77918137	     10.44106181	     -3.59664032	     -4.30425716	     33.22076228	    -13.26577149	     -0.06426437	     55.74772207	     55.74772207	      7.53041018	    -18.88119389	     12.92945504	    -10.63176169	      5.16230905	      0.75628277	     18.52546839	    -21.36474482	     -1.69497672	     88.96964180	     45.34829408	      0.00000000	      0.00000000	      0.29720729	     -9.57682526	     -2.58637118	     28.02274849	     45.43022748	      0.00000000	      0.00000000
      2.60892857	     -2.21693102	     -4.83100175	      5.97302067	      1.08441978	      0.93349664	      0.49417034	      8.01299507	      3.64547174	    -14.97455102	     14.12848876	     14.12848876	     10.39825752	     -3.56403386	     -4.45511582	     33.82874200	    -12.47492075	      0.02749264	     52.36291881	     52.36291881	      7.97305874	    -18.73620657	     13.10746658	    -10.66351242	      4.92076443	      0.83309554	     20.11121774	    -21.44495204	     -1.90557974	     90.79500694	     45.30254779	      0.00000000	      0.00000000	     -0.51327206	     -9.33438229	     -2.37981424	     27.84084538	     45.39240731	      0.00000000	      0.00000000
      2.62271429	     -2.47690290	     -4.63349373	      6.46609900	      1.08265016	      0.93366031	      0.49399147	      7.66468166	      3.48224767	    -15.43420256	     13.47698254	     13.47698254	     10.18478021	     -3.38110869	     -5.23614850	     34.21740273	    -11.57783819	      0.28186986	     48.64487442	     48.64487442	      7.89001589	    -18.47374022	     11.94609662	    -10.70886166	      4.71623747	      1.13874336	     21.39244203	    -21.77922789	     -2.16711991	     93.06662263	     45.24123820	      0.00000000	      0.00000000	     -1.30014880	     -9.17530574	     -1.69519659	     28.09097853	     45.30415444	      0.00000000	      0.00000000
      2.63650000	     -2.73914613	     -4.43645270	      6.94033327	      1.08085885	      0.93376651	      0.49361323	      7.38827162	      3.31596248	    -15.73050092	     12.97228248	     12.97228248	     10.21548822	     -3.41200746	     -5.27145017	     34.46392965	    -10.56024578	      0.81258301	     44.80517840	     44.80517840	      8.10919535	    -17.86728395	     11.75951675	    -10.69998114	      4.49520493	      1.19508322	     23.09865517	    -21.65033883	     -2.46075672	     94.25857965	     45.21966256	      0.00000000	      0.00000000	     -1.96163135	     -8.92903326	     -1.47756546	     27.80558298	     45.26820370	      0.00000000	      0.00000000
      2.65028571	     -3.04745745	     -4.26930195	      7.36846757	      1.07908312	      0.93366492	      0.49311272	      7.21213169	      3.14607615	    -16.01559478	     12.56529485	     12.56529485	     10.27222738	     -3.37706831	     -5.33613016	     34.63185801	     -9.60556221	      1.39976483	     40.90371323	     40.90371323	      8.35049179	    -16.64583115	     11.57342559	    -10.63239037	      4.31014076	      1.41182426	     24.71303420	    -21.70310562	     -2.69344886	     95.27802185	     45.20167244	      0.00000000	      0.00000000	     -2.53947648	     -8.69519136	     -1.34773435	     27.62036503	     45.24313851	      0.00000000	      0.00000000
      2.66407143	     -3.20125776	     -4.18593430	      7.80925612	      1.07756739	      0.93356594	      0.49241965	      6.80492025	      3.04826904	    -16.67200433	     12.06112017	     12.06112017	     10.21916946	     -2.83410190	     -6.03538024	     34.32496112	     -8.80069852	      2.03104176	     36.58509657	     36.58509657	      6.95834482	    -15.51422477	      7.31741879	    -10.75249962	      4.26444562	      1.47086519	     26.28713692	    -21.60526404	     -2.64108189	     96.64560134	     45.16343661	      0.00000000	      0.00000000	     -3.32899862	     -8.59315416	     -0.58484981	     27.99856298	     45.16220714	      0.00000000	      0.00000000
      2.67785714	     -3.43265364	     -4.14015015	      8.17040471	      1.07602494	      0.93327562	      0.49170514	      6.58959191	      3.00519178	    -16.89642817	     11.74230257	     11.74230257	     10.31455671	     -2.84396094	     -6.06393336	     34.22123935	     -8.08819123	      2.70858800	     32.84181878	     32.84181878	      7.20116864	    -13.41595451	      7.47442729	    -10.72493885	      4.22087120	      1.71818271	     27.83985522	    -21.51454727	     -2.82981573	     97.44400308	     45.15102351	      0.00000000	      0.00000000	     -3.81419073	     -8.37290712	     -0.46892924	     27.80939961	     45.14412979	      0.00000000	      0.00000000
      2.69164286	     -3.71856028	     -4.30068501	      8.55243176	      1.07457830	      0.93263248	      0.49092158	      6.52136395	      3.14675712	    -17.22648842	     11.55382248	     11.55382248	     10.45119995	     -2.87251959	     -6.14667818	     34.25267690	     -7.59944435	      3.49253844	     29.47246765	     29.47246765	      7.26938068	    -11.35210183	      7.77506633	    -10.57187116	      4.42369717	      2.08237696	     29.28738974	    -21.60528398	     -3.02250420	     98.01894843	     45.14540114	      0.00000000	      0.00000000	     -4.18243616	     -8.10840648	     -0.40366714	     27.71624659	     45.13101430	      0.00000000	      0.00000000
      2.70542857	     -3.88237390	     -4.32658289	      8.84608635	      1.07346162	      0.93219057	      0.49006858	      6.24288239	      3.16752800	    -17.49251511	     11.29922906	     11.29922906	     10.61674819	     -2.75720907	     -6.23582087	     33.98947506	     -7.13915538	      3.91172010	     26.34202370	     26.34202370	      7.24651470	     -9.22248516	      8.11691498	    -10.54811929	      4.47516726	      2.38219035	     30.69141061	    -21.46134657	     -3.12223302	     98.61976423	     45.13573425	      0.00000000	      0.00000000	     -4.56368506	     -7.93217592	     -0.34063843	     27.61038426	     45.11850529	      0.00000000	      0.00000000
      2.71921429	     -3.96706896	     -4.34831902	      9.07756410	      1.07258927	      0.93175408	      0.48916336	      5.84672734	      3.19933649	    -17.75881403	     11.02049702	     11.02049702	     10.81728440	     -2.51870442	     -6.33408979	     33.65011718	     -6.79165254	      4.03163757	     23.71529429	     23.71529429	      7.09464742	     -7.25472538	      8.47216092	    -10.60969728	      4.51380408	      2.63812334	     32.00792787	    -21.16224130	     -3.15050934	     99.10666544	     45.12692115	      0.00000000	      0.00000000	     -4.93833338	     -7.80268178	     -0.27735928	     27.52376463	     45.10659225	      0.00000000	      0.00000000
      2.73300000	     -3.93512379	     -4.31891401	      9.27624909	      1.07210201	      0.93149858	      0.48825139	      5.26119870	      3.19825729	    -18.04437946	     10.69086337	     10.69086337	     11.02998042	     -2.04632683	     -6.42233321	     33.13776697	     -6.51794818	      3.75209402	     21.56325002	     21.56325002	      6.79877219	     -5.43505822	      8.79034510	    -10.71790633	      4.46585990	      2.76153279	     33.28749830	    -20.62353098	     -3.07589465	     99.37079453	     45.12158456	      0.00000000	      0.00000000	     -5.34443494	     -7.73251616	     -0.19829346	     27.47824556	     45.09399588	      0.00000000	      0.00000000
      2.74678571	     -4.05080586	     -4.56177240	      9.45431144	      1.07163140	      0.93070176	      0.48731945	      4.98713050	      3.44020583	    -18.31211516	     10.56327978	     10.56327978	     11.28496666	     -1.80238351	     -6.50711712	     33.03320492	     -6.46577293	      3.58365138	     20.24122077	     20.24122077	      6.39441420	     -4.40473858	      9.02733794	    -10.60811826	      4.71816038	      3.06326851	     34.40614305	    -20.35629351	     -3.08321120	     99.41108687	     45.12498302	      0.00000000	      0.00000000	     -5.62180831	     -7.63049925	     -0.14814433	     27.50579299	     45.08557367	      0.00000000	      0.00000000
      2.76057143	     -4.08016102	     -4.67119272	      9.56221577	      1.07156284	      0.93007241	      0.48632766	      4.56198615	      3.55370280	    -18.49941283	     10.42533731	     10.42533731	     11.58276407	     -1.47558043	     -6.56280051	     32.71617792	     -6.38138180	      3.09115230	     19.34169191	     19.34169191	      5.90708020	     -3.72332070	      9.15265895	    -10.52801255	      4.80321451	      3.31568863	     35.38314459	    -19.91021336	     -3.02544888	     99.25974504	     45.13171837	      0.00000000	      0.00000000	     -5.89260591	     -7.59789903	     -0.09587181	     27.53070499	     45.07737192	      0.00000000	      0.00000000
